<svg width="36" height="47" viewBox="0 0 36 47" fill="none" xmlns="http://www.w3.org/2000/svg">
<g filter="url(#filter0_d_98747_9)">
<path fill-rule="evenodd" clip-rule="evenodd" d="M17.125 39.6667C17.125 39.6667 30.25 29.6667 30.25 18C30.25 14.0218 28.8672 10.2064 26.4058 7.3934C23.9444 4.58035 20.606 3 17.125 3C13.644 3 10.3056 4.58035 7.84422 7.3934C5.38281 10.2064 4 14.0218 4 18C4 29.6667 17.125 39.6667 17.125 39.6667ZM22 17.5C22 21.0899 19.7614 24 17 24C14.2386 24 12 21.0899 12 17.5C12 13.9101 14.2386 11 17 11C19.7614 11 22 13.9101 22 17.5Z" fill="#DBC062"/>
<path d="M17.125 39.6667L16.822 40.0644C17.001 40.2008 17.249 40.2008 17.428 40.0644L17.125 39.6667ZM26.4058 7.3934L26.7821 7.06415L26.7821 7.06415L26.4058 7.3934ZM7.84422 7.3934L7.46793 7.06414L7.46793 7.06415L7.84422 7.3934ZM29.75 18C29.75 23.6563 26.5604 28.9591 23.3026 32.8892C21.6805 34.8461 20.0572 36.4437 18.8393 37.5521C18.2306 38.106 17.7241 38.5369 17.3707 38.8286C17.194 38.9744 17.0557 39.0854 16.9621 39.1595C16.9153 39.1965 16.8797 39.2243 16.8561 39.2427C16.8442 39.2518 16.8354 39.2586 16.8297 39.263C16.8269 39.2652 16.8248 39.2668 16.8235 39.2678C16.8228 39.2683 16.8224 39.2686 16.8221 39.2688C16.822 39.2689 16.822 39.269 16.8219 39.269C16.8219 39.269 16.822 39.2689 17.125 39.6667C17.428 40.0644 17.4282 40.0643 17.4284 40.0641C17.4285 40.064 17.4288 40.0638 17.4291 40.0636C17.4296 40.0632 17.4303 40.0626 17.4313 40.0619C17.4332 40.0604 17.4358 40.0584 17.4393 40.0557C17.4462 40.0504 17.4562 40.0427 17.4692 40.0326C17.4953 40.0124 17.5334 39.9826 17.5827 39.9436C17.6814 39.8655 17.825 39.7502 18.0072 39.5998C18.3716 39.299 18.8905 38.8576 19.5123 38.2917C20.7553 37.1604 22.4133 35.5289 24.0724 33.5274C27.3771 29.5409 30.75 24.0104 30.75 18H29.75ZM26.0295 7.72265C28.4057 10.4384 29.75 14.1344 29.75 18H30.75C30.75 13.9091 29.3286 9.97451 26.7821 7.06415L26.0295 7.72265ZM17.125 3.5C20.4502 3.5 23.6551 5.00906 26.0295 7.72265L26.7821 7.06415C24.2336 4.15165 20.7618 2.5 17.125 2.5V3.5ZM8.22051 7.72265C10.5949 5.00906 13.7998 3.5 17.125 3.5V2.5C13.4882 2.5 10.0164 4.15165 7.46793 7.06414L8.22051 7.72265ZM4.5 18C4.5 14.1344 5.84425 10.4384 8.22051 7.72265L7.46793 7.06415C4.92136 9.97451 3.5 13.9091 3.5 18H4.5ZM17.125 39.6667C17.428 39.2689 17.4281 39.269 17.4281 39.269C17.428 39.269 17.428 39.2689 17.4279 39.2688C17.4276 39.2686 17.4272 39.2683 17.4265 39.2678C17.4252 39.2668 17.4231 39.2652 17.4203 39.263C17.4146 39.2586 17.4058 39.2518 17.3939 39.2427C17.3703 39.2243 17.3347 39.1965 17.2879 39.1595C17.1943 39.0854 17.056 38.9744 16.8793 38.8286C16.5259 38.5369 16.0194 38.106 15.4107 37.5521C14.1928 36.4437 12.5695 34.8461 10.9474 32.8892C7.68958 28.9591 4.5 23.6563 4.5 18H3.5C3.5 24.0104 6.87292 29.5409 10.1776 33.5274C11.8367 35.5289 13.4947 37.1604 14.7377 38.2917C15.3595 38.8576 15.8784 39.299 16.2428 39.5998C16.425 39.7502 16.5686 39.8655 16.6673 39.9436C16.7166 39.9826 16.7547 40.0124 16.7808 40.0326C16.7938 40.0427 16.8038 40.0504 16.8107 40.0557C16.8142 40.0584 16.8168 40.0604 16.8187 40.0619C16.8197 40.0626 16.8204 40.0632 16.8209 40.0636C16.8212 40.0638 16.8215 40.064 16.8216 40.0641C16.8218 40.0643 16.822 40.0644 17.125 39.6667ZM17 24.5C18.568 24.5 19.9538 23.6725 20.9318 22.401C21.9095 21.1301 22.5 19.3957 22.5 17.5H21.5C21.5 19.1942 20.9712 20.7097 20.1392 21.7913C19.3076 22.8724 18.1935 23.5 17 23.5V24.5ZM11.5 17.5C11.5 19.3957 12.0905 21.1301 13.0682 22.401C14.0462 23.6725 15.432 24.5 17 24.5V23.5C15.8065 23.5 14.6924 22.8724 13.8608 21.7913C13.0288 20.7097 12.5 19.1942 12.5 17.5H11.5ZM17 10.5C15.432 10.5 14.0462 11.3275 13.0682 12.599C12.0905 13.8699 11.5 15.6043 11.5 17.5H12.5C12.5 15.8058 13.0288 14.2903 13.8608 13.2087C14.6924 12.1276 15.8065 11.5 17 11.5V10.5ZM22.5 17.5C22.5 15.6043 21.9095 13.8699 20.9318 12.599C19.9538 11.3275 18.568 10.5 17 10.5V11.5C18.1935 11.5 19.3076 12.1276 20.1392 13.2087C20.9712 14.2903 21.5 15.8058 21.5 17.5H22.5Z" fill="#242B33"/>
</g>
<defs>
<filter id="filter0_d_98747_9" x="0.5" y="0.5" width="35.25" height="45.6667" filterUnits="userSpaceOnUse" color-interpolation-filters="sRGB">
<feFlood flood-opacity="0" result="BackgroundImageFix"/>
<feColorMatrix in="SourceAlpha" type="matrix" values="0 0 0 0 0 0 0 0 0 0 0 0 0 0 0 0 0 0 127 0" result="hardAlpha"/>
<feOffset dx="1" dy="2"/>
<feGaussianBlur stdDeviation="2"/>
<feComposite in2="hardAlpha" operator="out"/>
<feColorMatrix type="matrix" values="0 0 0 0 0 0 0 0 0 0 0 0 0 0 0 0 0 0 0.25 0"/>
<feBlend mode="normal" in2="BackgroundImageFix" result="effect1_dropShadow_98747_9"/>
<feBlend mode="normal" in="SourceGraphic" in2="effect1_dropShadow_98747_9" result="shape"/>
</filter>
</defs>
</svg>
