<svg width="23" height="20" viewBox="0 0 23 20" fill="none" xmlns="http://www.w3.org/2000/svg">
<path d="M20.5961 2.29292C20.0853 1.78192 19.4789 1.37656 18.8115 1.1C18.144 0.823439 17.4286 0.681091 16.7061 0.681091C15.9836 0.681091 15.2682 0.823439 14.6007 1.1C13.9333 1.37656 13.3269 1.78192 12.8161 2.29292L11.7561 3.35292L10.6961 2.29292C9.66441 1.26122 8.26513 0.681626 6.8061 0.681626C5.34706 0.681626 3.94779 1.26122 2.9161 2.29292C1.88441 3.32461 1.30481 4.72388 1.30481 6.18292C1.30481 7.64195 1.88441 9.04122 2.9161 10.0729L3.9761 11.1329L11.7561 18.9129L19.5361 11.1329L20.5961 10.0729C21.1071 9.56216 21.5124 8.95573 21.789 8.28827C22.0656 7.62081 22.2079 6.9054 22.2079 6.18292C22.2079 5.46043 22.0656 4.74502 21.789 4.07756C21.5124 3.4101 21.1071 2.80367 20.5961 2.29292Z" stroke="black" stroke-linecap="round" stroke-linejoin="round"/>
</svg>
